<mxfile host="65bd71144e">
    <diagram id="OAW_9Frlaaib3kzR8zbG" name="Page-1">
        <mxGraphModel dx="1503" dy="869" grid="1" gridSize="10" guides="1" tooltips="1" connect="1" arrows="1" fold="1" page="1" pageScale="1" pageWidth="850" pageHeight="1100" background="#FFFFFF" math="1" shadow="0">
            <root>
                <mxCell id="0"/>
                <mxCell id="1" parent="0"/>
                <mxCell id="5" style="edgeStyle=none;html=1;exitX=0.5;exitY=1;exitDx=0;exitDy=0;fontColor=#030303;labelBackgroundColor=none;strokeColor=#000000;" edge="1" parent="1" source="3" target="4">
                    <mxGeometry relative="1" as="geometry"/>
                </mxCell>
                <mxCell id="22" style="edgeStyle=none;html=1;exitX=1;exitY=0.5;exitDx=0;exitDy=0;entryX=0;entryY=0.5;entryDx=0;entryDy=0;jumpStyle=arc;fontColor=#030303;labelBackgroundColor=none;strokeColor=#080808;" edge="1" parent="1" source="3" target="20">
                    <mxGeometry relative="1" as="geometry">
                        <Array as="points">
                            <mxPoint x="240" y="80"/>
                            <mxPoint x="240" y="380"/>
                        </Array>
                    </mxGeometry>
                </mxCell>
                <mxCell id="32" style="edgeStyle=none;jumpStyle=arc;jumpSize=12;html=1;exitX=1;exitY=0.5;exitDx=0;exitDy=0;entryX=0.75;entryY=0;entryDx=0;entryDy=0;fontSize=10;fontColor=#FFFFFF;labelBackgroundColor=none;strokeColor=#212121;" edge="1" parent="1" source="3" target="31">
                    <mxGeometry relative="1" as="geometry">
                        <Array as="points">
                            <mxPoint x="703" y="80"/>
                        </Array>
                    </mxGeometry>
                </mxCell>
                <mxCell id="3" value="Voxel Grid" style="ellipse;whiteSpace=wrap;html=1;aspect=fixed;fontColor=#030303;labelBackgroundColor=none;fillColor=none;strokeColor=#000000;" vertex="1" parent="1">
                    <mxGeometry x="130" y="40" width="80" height="80" as="geometry"/>
                </mxCell>
                <mxCell id="7" style="edgeStyle=none;html=1;exitX=0.5;exitY=1;exitDx=0;exitDy=0;entryX=0.5;entryY=0;entryDx=0;entryDy=0;fontColor=#030303;labelBackgroundColor=none;strokeColor=#000000;" edge="1" parent="1" source="4" target="6">
                    <mxGeometry relative="1" as="geometry"/>
                </mxCell>
                <mxCell id="4" value="Stick convolution" style="rounded=1;whiteSpace=wrap;html=1;fontColor=#030303;labelBackgroundColor=none;fillColor=none;strokeColor=#000000;" vertex="1" parent="1">
                    <mxGeometry x="130" y="160" width="80" height="40" as="geometry"/>
                </mxCell>
                <mxCell id="9" style="edgeStyle=none;html=1;exitX=0.5;exitY=1;exitDx=0;exitDy=0;entryX=0.5;entryY=0;entryDx=0;entryDy=0;fontColor=#030303;labelBackgroundColor=none;strokeColor=#000000;" edge="1" parent="1" source="6" target="8">
                    <mxGeometry relative="1" as="geometry"/>
                </mxCell>
                <mxCell id="6" value="Unobstructed Voxels" style="ellipse;whiteSpace=wrap;html=1;aspect=fixed;fontColor=#030303;labelBackgroundColor=none;fillColor=none;strokeColor=#000000;" vertex="1" parent="1">
                    <mxGeometry x="130" y="240" width="80" height="80" as="geometry"/>
                </mxCell>
                <mxCell id="11" style="edgeStyle=none;html=1;exitX=0.5;exitY=1;exitDx=0;exitDy=0;entryX=0.5;entryY=0;entryDx=0;entryDy=0;fontColor=#030303;labelBackgroundColor=none;strokeColor=#000000;" edge="1" parent="1" source="8" target="10">
                    <mxGeometry relative="1" as="geometry"/>
                </mxCell>
                <mxCell id="8" value="Dilation" style="rounded=1;whiteSpace=wrap;html=1;fontColor=#030303;labelBackgroundColor=none;fillColor=none;strokeColor=#000000;" vertex="1" parent="1">
                    <mxGeometry x="130" y="360" width="80" height="40" as="geometry"/>
                </mxCell>
                <mxCell id="13" style="edgeStyle=none;html=1;exitX=0.5;exitY=1;exitDx=0;exitDy=0;entryX=0.5;entryY=0;entryDx=0;entryDy=0;fontColor=#030303;labelBackgroundColor=none;strokeColor=#000000;" edge="1" parent="1" source="10" target="12">
                    <mxGeometry relative="1" as="geometry"/>
                </mxCell>
                <mxCell id="10" value="Connected Manifolds" style="ellipse;whiteSpace=wrap;html=1;aspect=fixed;fontColor=#030303;labelBackgroundColor=none;fillColor=none;strokeColor=#000000;" vertex="1" parent="1">
                    <mxGeometry x="130" y="440" width="80" height="80" as="geometry"/>
                </mxCell>
                <mxCell id="15" style="edgeStyle=none;html=1;exitX=0.5;exitY=1;exitDx=0;exitDy=0;fontColor=#030303;labelBackgroundColor=none;strokeColor=#000000;" edge="1" parent="1" source="12" target="14">
                    <mxGeometry relative="1" as="geometry"/>
                </mxCell>
                <mxCell id="12" value="Connected Components" style="rounded=1;whiteSpace=wrap;html=1;fontColor=#030303;labelBackgroundColor=none;fillColor=none;strokeColor=#000000;" vertex="1" parent="1">
                    <mxGeometry x="130" y="560" width="80" height="40" as="geometry"/>
                </mxCell>
                <mxCell id="17" style="edgeStyle=none;html=1;exitX=0.5;exitY=1;exitDx=0;exitDy=0;entryX=0.5;entryY=0;entryDx=0;entryDy=0;jumpStyle=arc;jumpSize=12;fontColor=#030303;labelBackgroundColor=none;strokeColor=#030303;" edge="1" parent="1" source="14" target="16">
                    <mxGeometry relative="1" as="geometry">
                        <Array as="points">
                            <mxPoint x="170" y="780"/>
                            <mxPoint x="280" y="780"/>
                            <mxPoint x="280" y="120"/>
                            <mxPoint x="400" y="120"/>
                        </Array>
                    </mxGeometry>
                </mxCell>
                <mxCell id="41" style="edgeStyle=none;jumpStyle=arc;jumpSize=12;html=1;exitX=0.5;exitY=1;exitDx=0;exitDy=0;entryX=0.25;entryY=0;entryDx=0;entryDy=0;fontSize=10;fontColor=#030303;labelBackgroundColor=none;strokeColor=#0A0A0A;" edge="1" parent="1" source="14" target="40">
                    <mxGeometry relative="1" as="geometry">
                        <Array as="points">
                            <mxPoint x="170" y="780"/>
                            <mxPoint x="770" y="780"/>
                            <mxPoint x="770" y="80"/>
                            <mxPoint x="878" y="80"/>
                        </Array>
                    </mxGeometry>
                </mxCell>
                <mxCell id="14" value="\(V_{navigation}\)" style="ellipse;whiteSpace=wrap;html=1;aspect=fixed;fontColor=#030303;labelBackgroundColor=none;fillColor=none;strokeColor=#000000;" vertex="1" parent="1">
                    <mxGeometry x="130" y="640" width="80" height="80" as="geometry"/>
                </mxCell>
                <mxCell id="19" style="edgeStyle=none;html=1;exitX=0.5;exitY=1;exitDx=0;exitDy=0;entryX=0.5;entryY=0;entryDx=0;entryDy=0;fontColor=#030303;labelBackgroundColor=none;strokeColor=#030303;" edge="1" parent="1" source="16" target="18">
                    <mxGeometry relative="1" as="geometry"/>
                </mxCell>
                <mxCell id="16" value="Maximum Visibility Estimation" style="rounded=1;whiteSpace=wrap;html=1;fontColor=#030303;labelBackgroundColor=none;fillColor=none;strokeColor=#000000;" vertex="1" parent="1">
                    <mxGeometry x="305" y="160" width="190" height="40" as="geometry"/>
                </mxCell>
                <mxCell id="21" style="edgeStyle=none;html=1;exitX=0.5;exitY=1;exitDx=0;exitDy=0;entryX=0.5;entryY=0;entryDx=0;entryDy=0;fontColor=#030303;labelBackgroundColor=none;strokeColor=#030303;" edge="1" parent="1" source="18" target="20">
                    <mxGeometry relative="1" as="geometry"/>
                </mxCell>
                <mxCell id="18" value="Optimal scanner poses" style="ellipse;whiteSpace=wrap;html=1;aspect=fixed;fontColor=#030303;labelBackgroundColor=none;fillColor=none;strokeColor=#000000;" vertex="1" parent="1">
                    <mxGeometry x="360" y="240" width="80" height="80" as="geometry"/>
                </mxCell>
                <mxCell id="24" style="edgeStyle=none;jumpStyle=arc;jumpSize=12;html=1;exitX=0.5;exitY=1;exitDx=0;exitDy=0;entryX=0.5;entryY=0;entryDx=0;entryDy=0;fontColor=#030303;labelBackgroundColor=none;strokeColor=#030303;" edge="1" parent="1" source="20" target="23">
                    <mxGeometry relative="1" as="geometry"/>
                </mxCell>
                <mxCell id="20" value="Visibility Computation" style="rounded=1;whiteSpace=wrap;html=1;fontColor=#030303;labelBackgroundColor=none;fillColor=none;strokeColor=#000000;" vertex="1" parent="1">
                    <mxGeometry x="305" y="360" width="190" height="40" as="geometry"/>
                </mxCell>
                <mxCell id="28" style="edgeStyle=none;jumpStyle=arc;jumpSize=12;html=1;exitX=0.5;exitY=1;exitDx=0;exitDy=0;entryX=0.5;entryY=0;entryDx=0;entryDy=0;fontSize=10;fontColor=#030303;labelBackgroundColor=none;strokeColor=#030303;" edge="1" parent="1" source="23" target="27">
                    <mxGeometry relative="1" as="geometry"/>
                </mxCell>
                <mxCell id="23" value="\(visibility_{views}\)" style="ellipse;whiteSpace=wrap;html=1;aspect=fixed;fontSize=10;fontColor=#030303;labelBackgroundColor=none;fillColor=none;strokeColor=#000000;" vertex="1" parent="1">
                    <mxGeometry x="360" y="440" width="80" height="80" as="geometry"/>
                </mxCell>
                <mxCell id="30" style="edgeStyle=none;jumpStyle=arc;jumpSize=12;html=1;exitX=0.5;exitY=1;exitDx=0;exitDy=0;fontSize=10;fontColor=#030303;labelBackgroundColor=none;strokeColor=#030303;" edge="1" parent="1" source="27" target="29">
                    <mxGeometry relative="1" as="geometry"/>
                </mxCell>
                <mxCell id="27" value="Visibility Clustering" style="rounded=1;whiteSpace=wrap;html=1;fontColor=#030303;labelBackgroundColor=none;fillColor=none;strokeColor=#000000;" vertex="1" parent="1">
                    <mxGeometry x="305" y="560" width="190" height="40" as="geometry"/>
                </mxCell>
                <mxCell id="33" style="edgeStyle=none;jumpStyle=arc;jumpSize=12;html=1;exitX=0.5;exitY=1;exitDx=0;exitDy=0;entryX=0.25;entryY=0;entryDx=0;entryDy=0;fontSize=10;fontColor=#030303;labelBackgroundColor=none;strokeColor=#0D0D0D;" edge="1" parent="1" source="29" target="31">
                    <mxGeometry relative="1" as="geometry">
                        <Array as="points">
                            <mxPoint x="400" y="750"/>
                            <mxPoint x="530" y="750"/>
                            <mxPoint x="530" y="120"/>
                            <mxPoint x="608" y="120"/>
                        </Array>
                    </mxGeometry>
                </mxCell>
                <mxCell id="29" value="\(V_c\)" style="ellipse;whiteSpace=wrap;html=1;aspect=fixed;fontSize=10;fontColor=#030303;labelBackgroundColor=none;fillColor=none;strokeColor=#000000;" vertex="1" parent="1">
                    <mxGeometry x="360" y="640" width="80" height="80" as="geometry"/>
                </mxCell>
                <mxCell id="35" style="edgeStyle=none;jumpStyle=arc;jumpSize=12;html=1;exitX=0.5;exitY=1;exitDx=0;exitDy=0;entryX=0.5;entryY=0;entryDx=0;entryDy=0;fontSize=10;fontColor=#030303;labelBackgroundColor=none;strokeColor=#000000;" edge="1" parent="1" source="31" target="34">
                    <mxGeometry relative="1" as="geometry"/>
                </mxCell>
                <mxCell id="31" value="Label Transfer" style="rounded=1;whiteSpace=wrap;html=1;fontColor=#030303;labelBackgroundColor=none;fillColor=none;strokeColor=#000000;" vertex="1" parent="1">
                    <mxGeometry x="560" y="160" width="190" height="40" as="geometry"/>
                </mxCell>
                <mxCell id="38" style="edgeStyle=none;jumpStyle=arc;jumpSize=12;html=1;exitX=0.5;exitY=1;exitDx=0;exitDy=0;entryX=0.5;entryY=0;entryDx=0;entryDy=0;fontSize=10;fontColor=#030303;labelBackgroundColor=none;strokeColor=#000000;" edge="1" parent="1" source="34" target="37">
                    <mxGeometry relative="1" as="geometry"/>
                </mxCell>
                <mxCell id="34" value="Segmented Voxel Grid" style="ellipse;whiteSpace=wrap;html=1;aspect=fixed;fontColor=#030303;labelBackgroundColor=none;fillColor=none;strokeColor=#000000;" vertex="1" parent="1">
                    <mxGeometry x="615" y="240" width="80" height="80" as="geometry"/>
                </mxCell>
                <mxCell id="42" style="edgeStyle=none;jumpStyle=arc;jumpSize=12;html=1;exitX=0.5;exitY=1;exitDx=0;exitDy=0;entryX=0.75;entryY=0;entryDx=0;entryDy=0;fontSize=10;fontColor=#030303;labelBackgroundColor=none;strokeColor=#050505;" edge="1" parent="1" source="36" target="40">
                    <mxGeometry relative="1" as="geometry">
                        <Array as="points">
                            <mxPoint x="655" y="560"/>
                            <mxPoint x="800" y="560"/>
                            <mxPoint x="800" y="110"/>
                            <mxPoint x="973" y="110"/>
                        </Array>
                    </mxGeometry>
                </mxCell>
                <mxCell id="36" value="Segmented Voxel Grid" style="ellipse;whiteSpace=wrap;html=1;aspect=fixed;fontColor=#030303;labelBackgroundColor=none;fillColor=none;strokeColor=#000000;" vertex="1" parent="1">
                    <mxGeometry x="615" y="440" width="80" height="80" as="geometry"/>
                </mxCell>
                <mxCell id="39" style="edgeStyle=none;jumpStyle=arc;jumpSize=12;html=1;exitX=0.5;exitY=1;exitDx=0;exitDy=0;entryX=0.5;entryY=0;entryDx=0;entryDy=0;fontSize=10;fontColor=#030303;labelBackgroundColor=none;strokeColor=#000000;" edge="1" parent="1" source="37" target="36">
                    <mxGeometry relative="1" as="geometry"/>
                </mxCell>
                <mxCell id="37" value="Label Propagation" style="rounded=1;whiteSpace=wrap;html=1;fontColor=#030303;labelBackgroundColor=none;fillColor=none;strokeColor=#000000;" vertex="1" parent="1">
                    <mxGeometry x="560" y="360" width="190" height="40" as="geometry"/>
                </mxCell>
                <mxCell id="44" style="edgeStyle=none;jumpStyle=arc;jumpSize=12;html=1;exitX=0.5;exitY=1;exitDx=0;exitDy=0;entryX=0.5;entryY=0;entryDx=0;entryDy=0;fontSize=10;fontColor=#030303;labelBackgroundColor=none;strokeColor=#000000;" edge="1" parent="1" source="40" target="43">
                    <mxGeometry relative="1" as="geometry"/>
                </mxCell>
                <mxCell id="40" value="Topological Map Extraction" style="rounded=1;whiteSpace=wrap;html=1;fontColor=#030303;labelBackgroundColor=none;fillColor=none;strokeColor=#000000;" vertex="1" parent="1">
                    <mxGeometry x="830" y="160" width="190" height="40" as="geometry"/>
                </mxCell>
                <mxCell id="47" style="edgeStyle=none;jumpStyle=arc;jumpSize=12;html=1;exitX=0.5;exitY=1;exitDx=0;exitDy=0;entryX=0.5;entryY=0;entryDx=0;entryDy=0;fontSize=10;fontColor=#030303;labelBackgroundColor=none;strokeColor=#000000;" edge="1" parent="1" source="43" target="45">
                    <mxGeometry relative="1" as="geometry"/>
                </mxCell>
                <mxCell id="43" value="Topological Graph" style="ellipse;whiteSpace=wrap;html=1;aspect=fixed;fontColor=#030303;labelBackgroundColor=none;fillColor=none;strokeColor=#000000;" vertex="1" parent="1">
                    <mxGeometry x="885" y="240" width="80" height="80" as="geometry"/>
                </mxCell>
                <mxCell id="49" style="edgeStyle=none;jumpStyle=arc;jumpSize=12;html=1;exitX=0.5;exitY=1;exitDx=0;exitDy=0;entryX=0.5;entryY=0;entryDx=0;entryDy=0;fontSize=10;fontColor=#030303;labelBackgroundColor=none;strokeColor=#000000;" edge="1" parent="1" source="45" target="48">
                    <mxGeometry relative="1" as="geometry"/>
                </mxCell>
                <mxCell id="45" value="Topometric Map Extraction" style="rounded=1;whiteSpace=wrap;html=1;fontColor=#030303;labelBackgroundColor=none;fillColor=none;strokeColor=#000000;" vertex="1" parent="1">
                    <mxGeometry x="830" y="360" width="190" height="40" as="geometry"/>
                </mxCell>
                <mxCell id="48" value="Topometric&lt;br&gt;Map" style="ellipse;whiteSpace=wrap;html=1;aspect=fixed;fontColor=#030303;labelBackgroundColor=none;fillColor=none;strokeColor=#000000;" vertex="1" parent="1">
                    <mxGeometry x="885" y="440" width="80" height="80" as="geometry"/>
                </mxCell>
            </root>
        </mxGraphModel>
    </diagram>
</mxfile>